<svg xmlns="http://www.w3.org/2000/svg" viewBox="0 0 24 24" fill="none" stroke="currentColor" stroke-width="2" stroke-linecap="round" stroke-linejoin="round" class="feather feather-rocket">
  <path d="M6.2 3.2c1.4-1.4 3.7-1.4 5.1 0l7.1 7.1c1.4 1.4 1.4 3.7 0 5.1l-1.4 1.4L15.6 14l-1.4-1.4 2.8-2.8-1.4-1.4-2.8 2.8-1.4-1.4 2.8-2.8-1.4-1.4-2.8 2.8L7.6 10 4.8 7.2l-1.4-1.4c-1.4-1.4-1.4-3.7 0-5.1l2.8-2.8zM4.8 19.2l-1.4 1.4c-1.4 1.4-1.4 3.7 0 5.1l2.8 2.8c1.4 1.4 3.7 1.4 5.1 0l1.4-1.4L10 16.4l-2.8 2.8z"></path>
</svg>
